<svg width="52" height="43" viewBox="0 0 52 43" fill="none" xmlns="http://www.w3.org/2000/svg">
<g filter="url(#filter0_d_71_53)">
<path d="M25.9584 41L2 10.8064H49.9167L25.9584 41Z" fill="#9B0E1E" shape-rendering="crispEdges"/>
<path d="M49.875 10.8065L35.6636 10.8064V2.09032L49.875 10.8065Z" fill="#9B0E1E" shape-rendering="crispEdges"/>
<path d="M2.08332 10.8064L16.2947 2.09032V10.8064H2.08332Z" fill="#9B0E1E" shape-rendering="crispEdges"/>
<path d="M33.9167 22.7581L28.0092 19.4556H39.8243L33.9167 22.7581Z" fill="white" shape-rendering="crispEdges"/>
<path d="M18.758 22.7581L12.8504 19.4556H24.6655L18.758 22.7581Z" fill="white" shape-rendering="crispEdges"/>
<path d="M25.9584 41L31.6213 33.8265C32.2818 32.9899 31.5586 31.879 30.3533 31.879H21.5633C20.3581 31.879 19.6349 32.9899 20.2954 33.8265L25.9584 41Z" fill="black" fill-opacity="0.73" shape-rendering="crispEdges"/>
<path d="M26.0416 40.9097L2.08327 10.7161H50L26.0416 40.9097Z" fill="url(#paint0_linear_71_53)" fill-opacity="0.73" style="mix-blend-mode:color-burn" shape-rendering="crispEdges"/>
<path d="M49.9582 10.7161L35.7469 10.7161V2L49.9582 10.7161Z" fill="url(#paint1_linear_71_53)" fill-opacity="0.73" style="mix-blend-mode:color-burn" shape-rendering="crispEdges"/>
<path d="M2.16659 10.7161L16.3779 2V10.7161H2.16659Z" fill="url(#paint2_linear_71_53)" fill-opacity="0.73" style="mix-blend-mode:color-burn" shape-rendering="crispEdges"/>
<path d="M34 22.6677L28.0924 19.3653H39.9075L34 22.6677Z" fill="url(#paint3_linear_71_53)" fill-opacity="0.73" style="mix-blend-mode:color-burn" shape-rendering="crispEdges"/>
<path d="M18.8412 22.6677L12.9337 19.3653H24.7488L18.8412 22.6677Z" fill="url(#paint4_linear_71_53)" fill-opacity="0.73" style="mix-blend-mode:color-burn" shape-rendering="crispEdges"/>
<path d="M26.0416 40.9097L31.7046 33.7362C32.3651 32.8996 31.6419 31.7887 30.4366 31.7887H21.6466C20.4414 31.7887 19.7181 32.8996 20.3786 33.7362L26.0416 40.9097Z" fill="url(#paint5_linear_71_53)" fill-opacity="0.73" style="mix-blend-mode:color-burn" shape-rendering="crispEdges"/>
</g>
<defs>
<filter id="filter0_d_71_53" x="0" y="0" width="52" height="43" filterUnits="userSpaceOnUse" color-interpolation-filters="sRGB">
<feFlood flood-opacity="0" result="BackgroundImageFix"/>
<feColorMatrix in="SourceAlpha" type="matrix" values="0 0 0 0 0 0 0 0 0 0 0 0 0 0 0 0 0 0 127 0" result="hardAlpha"/>
<feOffset/>
<feGaussianBlur stdDeviation="1"/>
<feComposite in2="hardAlpha" operator="out"/>
<feColorMatrix type="matrix" values="0 0 0 0 1 0 0 0 0 0.339167 0 0 0 0 0.339167 0 0 0 0.3 0"/>
<feBlend mode="normal" in2="BackgroundImageFix" result="effect1_dropShadow_71_53"/>
<feBlend mode="normal" in="SourceGraphic" in2="effect1_dropShadow_71_53" result="shape"/>
</filter>
<linearGradient id="paint0_linear_71_53" x1="26.0416" y1="2" x2="26.0416" y2="40.9097" gradientUnits="userSpaceOnUse">
<stop stop-color="#FF6E6E"/>
<stop offset="0.941166" stop-color="#770000"/>
</linearGradient>
<linearGradient id="paint1_linear_71_53" x1="26.0416" y1="2" x2="26.0416" y2="40.9097" gradientUnits="userSpaceOnUse">
<stop stop-color="#FF6E6E"/>
<stop offset="0.941166" stop-color="#770000"/>
</linearGradient>
<linearGradient id="paint2_linear_71_53" x1="26.0416" y1="2" x2="26.0416" y2="40.9097" gradientUnits="userSpaceOnUse">
<stop stop-color="#FF6E6E"/>
<stop offset="0.941166" stop-color="#770000"/>
</linearGradient>
<linearGradient id="paint3_linear_71_53" x1="26.0416" y1="2" x2="26.0416" y2="40.9097" gradientUnits="userSpaceOnUse">
<stop stop-color="#FF6E6E"/>
<stop offset="0.941166" stop-color="#770000"/>
</linearGradient>
<linearGradient id="paint4_linear_71_53" x1="26.0416" y1="2" x2="26.0416" y2="40.9097" gradientUnits="userSpaceOnUse">
<stop stop-color="#FF6E6E"/>
<stop offset="0.941166" stop-color="#770000"/>
</linearGradient>
<linearGradient id="paint5_linear_71_53" x1="26.0416" y1="2" x2="26.0416" y2="40.9097" gradientUnits="userSpaceOnUse">
<stop stop-color="#FF6E6E"/>
<stop offset="0.941166" stop-color="#770000"/>
</linearGradient>
</defs>
</svg>
