<svg width="64" height="54" viewBox="0 0 64 54" fill="none" xmlns="http://www.w3.org/2000/svg">
<g filter="url(#filter0_d_7_18)">
<path d="M31.948 52L2 13.2903H61.8959L31.948 52Z" fill="#9B0E1E" shape-rendering="crispEdges"/>
<path d="M61.8437 13.2903L44.0795 13.2903V2.1158L61.8437 13.2903Z" fill="#9B0E1E" shape-rendering="crispEdges"/>
<path d="M2.10414 13.2903L19.8683 2.11579V13.2903H2.10414Z" fill="#9B0E1E" shape-rendering="crispEdges"/>
<path d="M41.8959 28.6129L34.5115 24.379H49.2803L41.8959 28.6129Z" fill="white" shape-rendering="crispEdges"/>
<path d="M22.9474 28.6129L15.563 24.379H30.3319L22.9474 28.6129Z" fill="white" shape-rendering="crispEdges"/>
<path d="M31.948 52L39.0266 42.8033C39.8523 41.7306 38.9482 40.3064 37.4417 40.3064H26.4542C24.9476 40.3064 24.0436 41.7306 24.8692 42.8033L31.948 52Z" fill="black" fill-opacity="0.73" shape-rendering="crispEdges"/>
<path d="M32.052 51.8842L2.10409 13.1745H62L32.052 51.8842Z" fill="url(#paint0_linear_7_18)" fill-opacity="0.73" style="mix-blend-mode:color-burn" shape-rendering="crispEdges"/>
<path d="M61.9478 13.1745L44.1836 13.1745V2.00001L61.9478 13.1745Z" fill="url(#paint1_linear_7_18)" fill-opacity="0.73" style="mix-blend-mode:color-burn" shape-rendering="crispEdges"/>
<path d="M2.20823 13.1745L19.9724 2V13.1745H2.20823Z" fill="url(#paint2_linear_7_18)" fill-opacity="0.73" style="mix-blend-mode:color-burn" shape-rendering="crispEdges"/>
<path d="M42 28.4971L34.6156 24.2632H49.3844L42 28.4971Z" fill="url(#paint3_linear_7_18)" fill-opacity="0.73" style="mix-blend-mode:color-burn" shape-rendering="crispEdges"/>
<path d="M23.0515 28.4971L15.6671 24.2632H30.436L23.0515 28.4971Z" fill="url(#paint4_linear_7_18)" fill-opacity="0.73" style="mix-blend-mode:color-burn" shape-rendering="crispEdges"/>
<path d="M32.052 51.8842L39.1307 42.6875C39.9564 41.6148 39.0523 40.1907 37.5458 40.1907H26.5583C25.0517 40.1907 24.1477 41.6148 24.9733 42.6875L32.052 51.8842Z" fill="url(#paint5_linear_7_18)" fill-opacity="0.73" style="mix-blend-mode:color-burn" shape-rendering="crispEdges"/>
</g>
<defs>
<filter id="filter0_d_7_18" x="0" y="0" width="64" height="54" filterUnits="userSpaceOnUse" color-interpolation-filters="sRGB">
<feFlood flood-opacity="0" result="BackgroundImageFix"/>
<feColorMatrix in="SourceAlpha" type="matrix" values="0 0 0 0 0 0 0 0 0 0 0 0 0 0 0 0 0 0 127 0" result="hardAlpha"/>
<feOffset/>
<feGaussianBlur stdDeviation="1"/>
<feComposite in2="hardAlpha" operator="out"/>
<feColorMatrix type="matrix" values="0 0 0 0 1 0 0 0 0 0.339167 0 0 0 0 0.339167 0 0 0 0.3 0"/>
<feBlend mode="normal" in2="BackgroundImageFix" result="effect1_dropShadow_7_18"/>
<feBlend mode="normal" in="SourceGraphic" in2="effect1_dropShadow_7_18" result="shape"/>
</filter>
<linearGradient id="paint0_linear_7_18" x1="32.052" y1="2" x2="32.052" y2="51.8842" gradientUnits="userSpaceOnUse">
<stop stop-color="#FF6E6E"/>
<stop offset="0.941166" stop-color="#770000"/>
</linearGradient>
<linearGradient id="paint1_linear_7_18" x1="32.052" y1="2" x2="32.052" y2="51.8842" gradientUnits="userSpaceOnUse">
<stop stop-color="#FF6E6E"/>
<stop offset="0.941166" stop-color="#770000"/>
</linearGradient>
<linearGradient id="paint2_linear_7_18" x1="32.052" y1="2" x2="32.052" y2="51.8842" gradientUnits="userSpaceOnUse">
<stop stop-color="#FF6E6E"/>
<stop offset="0.941166" stop-color="#770000"/>
</linearGradient>
<linearGradient id="paint3_linear_7_18" x1="32.052" y1="2" x2="32.052" y2="51.8842" gradientUnits="userSpaceOnUse">
<stop stop-color="#FF6E6E"/>
<stop offset="0.941166" stop-color="#770000"/>
</linearGradient>
<linearGradient id="paint4_linear_7_18" x1="32.052" y1="2" x2="32.052" y2="51.8842" gradientUnits="userSpaceOnUse">
<stop stop-color="#FF6E6E"/>
<stop offset="0.941166" stop-color="#770000"/>
</linearGradient>
<linearGradient id="paint5_linear_7_18" x1="32.052" y1="2" x2="32.052" y2="51.8842" gradientUnits="userSpaceOnUse">
<stop stop-color="#FF6E6E"/>
<stop offset="0.941166" stop-color="#770000"/>
</linearGradient>
</defs>
</svg>
